<?xml version="1.0" standalone="no"?>
<!DOCTYPE svg PUBLIC "-//W3C//DTD SVG 20010904//EN"
  "http://www.w3.org/TR/2001/REC-SVG-20010904/DTD/svg10.dtd">
<svg version="1.0" xmlns="http://www.w3.org/2000/svg"
  viewBox="0 0 512.000000 512.000000"
  preserveAspectRatio="xMidYMid meet">

  <g transform="translate(0.000000,512.000000) scale(0.100000,-0.100000)">
    <path d="M923 4780 c-38 -8 -88 -31 -137 -63 -37 -23 -95 -91 -116 -137 -12
-25 -26 -54 -33 -65 -7 -12 -12 -92 -13 -210 -2 -104 -1 -181 2 -170 28 103
114 204 219 256 l70 34 333 3 332 3 0 35 c0 19 -4 42 -10 52 -5 9 -17 35 -27
57 -25 58 -120 149 -189 181 -56 26 -68 28 -224 30 -91 2 -184 -1 -207 -6z"/>
    <path d="M1425 4781 c3 -5 19 -12 35 -16 17 -4 30 -11 30 -16 0 -5 6 -9 13 -9
18 0 103 -84 133 -132 45 -70 56 -124 64 -293 8 -177 17 -207 82 -276 65 -69
114 -92 205 -97 45 -2 90 -2 99 2 15 6 15 8 -2 27 -17 19 -20 45 -25 263 -7
263 -11 283 -73 380 -28 44 -61 78 -111 114 -31 21 -86 43 -134 52 -68 13
-324 13 -316 1z"/>
    <path d="M3057 4780 c-39 -7 -110 -40 -115 -52 -2 -5 -10 -8 -17 -8 -7 0 -42
-32 -77 -71 -34 -40 -70 -79 -78 -88 -8 -9 -40 -48 -69 -86 -30 -39 -63 -78
-73 -88 -10 -10 -18 -19 -18 -21 0 -2 28 11 63 28 l62 31 580 3 c394 2 583 6
592 14 31 25 3 161 -46 228 -33 43 -72 79 -88 80 -7 0 -13 4 -13 9 0 22 -113
31 -383 30 -155 -1 -299 -5 -320 -9z"/>
    <path d="M3844 4781 c4 -6 13 -11 19 -11 18 0 117 -89 117 -106 0 -8 4 -14 8
-14 14 0 42 -103 42 -151 0 -72 -38 -159 -100 -229 -71 -82 -119 -139 -160
-190 -19 -24 -42 -51 -50 -60 -8 -9 -33 -38 -54 -65 -22 -28 -47 -57 -55 -66
-9 -9 -30 -34 -48 -55 -87 -107 -106 -131 -126 -154 -12 -14 -39 -47 -61 -74
-21 -26 -46 -56 -55 -65 -9 -10 -25 -29 -36 -42 -11 -13 -40 -49 -65 -79 -49
-60 -59 -72 -77 -94 -23 -27 -80 -140 -99 -196 -29 -85 -27 -322 3 -407 18
-48 75 -166 87 -180 1 -2 2 37 2 85 -1 77 2 95 27 143 15 30 40 68 55 84 15
17 46 53 68 80 21 28 49 61 61 75 12 14 49 59 83 100 34 41 65 77 69 80 4 3
31 36 61 75 30 38 62 77 70 86 14 14 31 35 116 139 16 19 36 42 44 51 14 15
132 157 155 187 5 7 15 18 20 25 6 7 39 48 75 91 36 43 72 87 80 96 8 9 35 41
60 71 25 30 54 65 65 78 11 14 27 32 35 40 8 9 40 48 70 86 30 38 66 81 79 95
67 73 88 218 45 310 -28 58 -81 113 -135 142 -41 22 -57 23 -273 26 -162 3
-226 1 -222 -7z"/>
    <path d="M925 4303 c-20 -4 -26 -6 -96 -38 -54 -24 -132 -108 -170 -183 l-34
-67 0 -1696 c0 -1244 3 -1700 11 -1710 6 -8 15 -25 19 -39 13 -42 75 -124 118
-155 63 -46 106 -65 177 -76 76 -11 325 -8 295 4 -61 25 -95 47 -142 94 -29
29 -53 56 -53 61 0 5 -6 15 -14 21 -8 7 -18 27 -22 44 -3 18 -12 35 -18 39 -8
5 -12 501 -14 1858 -2 1749 -3 1850 -20 1849 -9 -1 -26 -3 -37 -6z"/>
    <path d="M2655 4301 c-81 -17 -175 -86 -260 -193 -17 -20 -43 -53 -60 -74 -61
-76 -128 -144 -141 -144 -8 0 -14 -4 -14 -9 0 -16 -111 -51 -161 -51 -62 0
-147 29 -201 69 -40 30 -100 108 -112 146 -3 11 -3 -13 -1 -53 2 -41 8 -79 13
-85 5 -7 12 -25 16 -41 6 -26 53 -102 89 -146 19 -25 103 -90 114 -90 6 0 16
-7 23 -15 7 -8 20 -15 29 -15 9 0 30 -8 46 -17 46 -25 234 -24 300 2 109 42
168 88 265 206 25 30 54 65 65 78 11 14 27 32 35 40 8 9 40 48 70 86 30 38 62
77 70 86 15 16 20 22 100 119 25 30 47 57 50 60 3 3 14 15 24 28 l19 22 -174
-1 c-96 -1 -187 -4 -204 -8z"/>
    <path d="M2971 3118 c-101 -118 -162 -197 -167 -215 -4 -13 -10 -23 -14 -23
-5 0 -11 -13 -15 -30 -4 -16 -10 -30 -14 -30 -8 0 -26 -63 -43 -150 -12 -64
-4 -258 12 -274 5 -5 10 -19 10 -30 1 -12 9 -39 20 -61 11 -22 19 -46 20 -52
0 -7 4 -13 9 -13 5 0 14 -13 21 -30 7 -16 22 -40 34 -53 11 -12 46 -54 76 -92
30 -38 62 -77 70 -86 8 -8 24 -26 35 -40 11 -13 40 -48 65 -78 25 -30 52 -62
60 -71 8 -9 24 -28 35 -41 11 -13 40 -49 65 -79 25 -30 52 -64 61 -75 72 -88
147 -178 182 -219 23 -27 44 -52 47 -56 7 -11 82 -100 100 -119 8 -9 40 -48
70 -86 30 -38 65 -80 78 -94 13 -14 49 -57 80 -95 72 -89 89 -106 105 -106 18
0 81 61 113 111 26 40 29 52 29 139 0 118 -2 122 -130 279 -11 13 -27 32 -35
40 -8 9 -35 41 -60 71 -25 30 -53 64 -62 75 -9 11 -44 54 -78 95 -34 41 -72
86 -84 100 -12 14 -40 47 -61 75 -22 27 -47 56 -55 65 -25 27 -63 72 -104 125
-56 70 -58 72 -86 103 -14 15 -52 61 -85 102 -56 70 -72 88 -125 150 -78 89
-150 198 -150 227 0 7 -4 13 -9 13 -5 0 -12 19 -16 43 -4 23 -12 48 -19 56
-15 19 -15 313 0 332 7 8 15 30 19 49 4 19 12 41 18 48 19 23 -1 24 -22 0z"/>
    <path d="M2085 1554 c-16 -3 -44 -12 -62 -20 -17 -7 -34 -14 -38 -14 -22 0
-185 -127 -185 -145 0 -2 -13 -23 -28 -47 -61 -93 -65 -114 -70 -361 l-4 -228
26 6 c14 3 38 8 54 11 91 18 200 111 247 210 21 43 30 82 35 144 9 102 35 163
96 223 70 69 124 91 224 91 60 0 95 -5 119 -17 45 -22 49 -16 14 20 -36 39
-106 85 -163 107 -45 17 -203 29 -265 20z"/>
    <path d="M2367 1339 c-48 -11 -135 -68 -164 -108 l-23 -30 31 -6 c30 -7 82
-52 129 -114 14 -18 30 -38 35 -44 6 -7 39 -48 75 -91 36 -43 72 -86 80 -95 8
-9 33 -39 55 -66 22 -28 45 -54 51 -60 6 -5 35 -41 65 -80 30 -38 61 -77 69
-86 8 -9 44 -48 78 -88 35 -39 70 -71 77 -71 7 0 15 -3 17 -7 2 -5 26 -19 53
-33 48 -24 58 -25 279 -28 164 -3 226 -1 222 7 -4 6 -13 11 -21 11 -36 0 -126
74 -195 160 -19 24 -48 60 -65 80 -16 19 -34 40 -40 47 -5 7 -17 20 -25 30
-29 34 -162 195 -275 332 -11 13 -27 32 -35 40 -8 9 -40 48 -70 86 -30 38 -62
77 -70 85 -8 9 -29 31 -45 50 -42 48 -71 65 -133 79 -61 13 -101 13 -155 0z"/>
    <path d="M4198 1012 c4 -69 1 -86 -22 -137 -31 -67 -89 -126 -155 -158 -44
-21 -58 -22 -388 -25 -189 -2 -343 -6 -343 -10 0 -4 14 -23 30 -42 16 -19 33
-40 37 -45 14 -18 127 -149 146 -167 33 -34 126 -77 191 -88 40 -8 162 -10
328 -8 257 3 264 4 313 28 105 53 159 141 160 260 0 94 -19 136 -110 245 -37
44 -83 100 -103 124 -20 24 -48 57 -62 73 l-25 29 3 -79z"/>
    <path d="M2022 790 c-19 -16 -64 -44 -100 -62 l-67 -33 -382 -3 -381 -4 5 -36
c16 -108 104 -226 203 -274 14 -7 28 -16 31 -20 11 -16 179 -30 299 -26 99 4
135 10 172 27 26 11 50 21 53 21 17 0 110 93 140 139 38 61 54 117 62 214 3
48 4 87 2 87 -2 0 -19 -14 -37 -30z"/>
  </g>
  <style>
    path { fill: #000; }
    @media (prefers-color-scheme: dark) {
    path { fill: #FFF; }
    }
  </style>
</svg>
