<svg width="1200" height="630" viewBox="0 0 102 37" fill="none" xmlns="http://www.w3.org/2000/svg">
<g clip-path="url(#clip0_630_1345)">
<path d="M95.0165 0.000488281H92.0433C91.0335 0.000488281 90.1296 0.452071 89.5164 1.16284L88.1319 3.24252L87.4751 4.23099C88.0882 3.52857 88.985 3.08388 89.9872 3.08388H97.3815C97.4343 2.88459 97.4639 2.67477 97.4639 2.45805C97.4628 1.10113 96.3677 0.000488281 95.0165 0.000488281Z" fill="#5D5BF3"/>
<path d="M89.0415 7.40621C89.0541 7.38951 89.0682 7.37536 89.0809 7.3583L90.5897 5.09131C90.5821 5.10002 90.5727 5.10837 90.5655 5.11708L89.0415 7.40621Z" fill="#5D5BF3"/>
<path d="M85.9769 6.47364L86.5802 5.56612C86.5853 5.55995 86.5896 5.55487 86.5943 5.5487C86.5987 5.54289 86.6023 5.53926 86.6062 5.53418C86.607 5.53418 86.607 5.53345 86.607 5.53345L86.9105 5.07715C86.9029 5.08513 86.8942 5.09312 86.8873 5.10111L86.0206 6.40358C86.0206 6.40358 86.0206 6.40395 86.0199 6.40395C86.0159 6.40939 86.0123 6.41338 86.0079 6.41883C86.0036 6.42536 85.9989 6.43008 85.9938 6.43625L85.9006 6.57637C85.91 6.56367 85.922 6.55278 85.9317 6.53898C85.9465 6.51793 85.9621 6.49651 85.9769 6.47364Z" fill="#5D5BF3"/>
<path d="M91.152 4.24717L90.5891 5.09153C91.2022 4.39637 92.0943 3.95459 93.0907 3.95459H91.44C91.3384 4.04716 91.2416 4.14299 91.152 4.24717Z" fill="#5D5BF3"/>
<path d="M89.3994 3.95508C88.4088 3.95508 87.5232 4.39069 86.9104 5.07823L86.607 5.53453C86.607 5.53453 86.607 5.53489 86.6062 5.53489V5.53525C86.6023 5.54034 86.5986 5.54397 86.5943 5.54977C86.5896 5.55595 86.5853 5.56103 86.5802 5.5672L85.9769 6.47472C85.962 6.49723 85.9465 6.51901 85.931 6.54079C85.9212 6.55386 85.9093 6.56475 85.8999 6.57818C85.4364 7.18876 84.7109 7.55322 83.9474 7.55322C83.1797 7.55322 82.4495 7.18513 81.9863 6.5691L82.4401 7.24974C82.4643 7.2875 82.4903 7.32343 82.5163 7.35974C82.8249 7.78373 83.2137 8.13476 83.6476 8.40701C84.2874 8.80778 85.0306 9.03466 85.7991 9.03466C87.068 9.03466 88.274 8.42662 89.0417 7.40874L90.5657 5.11961C90.5733 5.1109 90.5827 5.10255 90.5899 5.09384L91.1528 4.24948C91.242 4.14566 91.3392 4.04946 91.4408 3.95689H89.3998V3.95508H89.3994Z" fill="#5D5BF3"/>
<path d="M83.6645 33.6196H83.6638C83.6638 33.7136 83.6707 33.8062 83.6779 33.8984H83.9417C83.7885 33.8981 83.6645 33.7732 83.6645 33.6196Z" fill="#5D5BF3"/>
<path d="M91.822 30.5352C91.822 32.3901 90.3251 33.8952 88.4785 33.8973C88.4778 33.8973 88.4771 33.8981 88.4756 33.8981H83.9417H83.678C83.8192 35.6242 85.2558 36.9815 87.0102 36.9815H88.4764C89.6965 36.9815 90.7641 36.3244 91.3483 35.345C91.4827 35.1189 91.5926 34.8756 91.672 34.619C91.7699 34.3035 91.8223 33.9674 91.8223 33.6193V32.7343V30.5352H91.822Z" fill="#5D5BF3"/>
<path d="M91.8966 12.8314L89.6193 16.2524C89.5947 16.2905 89.5695 16.3286 89.5467 16.3671C89.0781 17.1429 88.8057 18.033 88.7565 18.9409C88.7537 18.9953 88.7522 19.0508 88.7522 19.1053V32.7486V33.0129C90.4698 32.8699 91.8211 31.4276 91.8211 29.6645V19.1053V18.2348V14.4922C91.8211 14.4374 91.8225 14.3822 91.8254 14.3277C91.8734 13.4195 92.147 12.5298 92.6156 11.7537C92.6296 11.7301 92.6452 11.7068 92.66 11.6836L91.8966 12.8314Z" fill="#5D5BF3"/>
<path d="M92.9629 16.7768L101.523 3.91255C101.562 3.85883 101.594 3.79893 101.629 3.74121L92.9903 16.7242C92.9799 16.7413 92.9726 16.7598 92.9629 16.7768Z" fill="#5D5BF3"/>
<path d="M97.9893 3.66602L93.4796 10.4412C93.4648 10.4644 93.4492 10.4877 93.4351 10.5113C93.425 10.5291 93.4153 10.5476 93.4048 10.5646L97.8328 3.9125C97.8899 3.83445 97.9412 3.75096 97.9893 3.66602Z" fill="#5D5BF3"/>
<path d="M92.6409 17.863C92.6625 17.4684 92.7771 17.0996 92.9631 16.7769L92.6409 17.2604V17.863Z" fill="#5D5BF3"/>
<path d="M99.5537 0.000488281H98.8072H95.8634C97.2146 0.000488281 98.3097 1.10077 98.3097 2.45842C98.3097 2.67513 98.2801 2.88495 98.2277 3.08424C98.1735 3.29007 98.0911 3.48501 97.9893 3.66651C97.9408 3.75145 97.8899 3.83495 97.8321 3.91372L93.404 10.5658C92.9553 11.3296 92.6919 12.1983 92.6446 13.0859C92.6413 13.1403 92.6399 13.1955 92.6399 13.2503V17.2608L92.9622 16.7773C92.9716 16.7602 92.9791 16.7417 92.9896 16.7246L101.629 3.74165C101.86 3.36775 102 2.93178 102 2.45842C102.001 1.10113 100.905 0.000488281 99.5537 0.000488281Z" fill="#5D5BF3"/>
<path d="M82.845 33.6336V33.6196H82.8442C82.8442 33.6239 82.845 33.6286 82.845 33.6336Z" fill="#5D5BF3"/>
<path d="M82.845 33.6337C82.845 33.6283 82.8443 33.6243 82.8443 33.6196H82.845V26.1579C82.845 26.1031 82.8435 26.0479 82.8403 25.9928C82.7915 25.0845 82.5191 24.1951 82.0505 23.419C82.0266 23.3805 82.0024 23.3424 81.9779 23.3047L79.7754 19.9966V20.6112V33.6199C79.7754 34.0839 79.8693 34.526 80.0388 34.9282C80.0706 35.0041 80.1049 35.0785 80.1417 35.15C80.6956 36.2376 81.8225 36.9821 83.1217 36.9821H83.401H86.1899C84.3473 36.9814 82.8529 35.4836 82.845 33.6337Z" fill="#5D5BF3"/>
<path d="M84.4724 4.75952C84.476 4.76497 84.48 4.7686 84.4836 4.7744C84.4865 4.77803 84.4901 4.78166 84.4923 4.78457L82.0817 1.16247C82.0774 1.15702 82.0727 1.15303 82.0684 1.14795L84.471 4.75843C84.4717 4.75916 84.4717 4.75952 84.4724 4.75952Z" fill="#5D5BF3"/>
<path d="M79.6765 3.0972L78.3896 1.16346C78.386 1.15874 78.3813 1.15511 78.3777 1.15039L79.1574 2.32254L79.1751 2.34868L81.4671 5.79291C81.4733 5.80053 81.4798 5.80706 81.4856 5.81469L79.6946 3.12334L79.6765 3.0972Z" fill="#5D5BF3"/>
<path d="M84.9916 5.53379C84.9956 5.53924 84.9992 5.54287 85.0028 5.54868C85.0227 5.57409 85.0429 5.60022 85.0642 5.62346C85.0769 5.63689 85.091 5.64923 85.1044 5.66157C85.1184 5.67537 85.1318 5.69025 85.1473 5.70368C85.1679 5.72074 85.1885 5.73635 85.2102 5.75269C85.2196 5.76031 85.2286 5.76757 85.2391 5.77483C85.2619 5.7908 85.2864 5.80423 85.3099 5.81839C85.3197 5.82347 85.3287 5.82928 85.3381 5.83473C85.3421 5.8369 85.3457 5.83799 85.3486 5.83981C85.3692 5.8144 85.3916 5.79116 85.4107 5.76503C85.4263 5.74325 85.4418 5.72183 85.4566 5.69896L86.06 4.79144C86.0444 4.81068 86.0296 4.82992 86.0134 4.84843C86.0033 4.85932 85.9913 4.86949 85.9809 4.88001C85.9639 4.89671 85.9476 4.91414 85.9299 4.92975C85.9111 4.94536 85.892 4.95951 85.8728 4.9744C85.8609 4.98238 85.8501 4.99218 85.8381 4.99981C85.815 5.01614 85.7905 5.02921 85.7663 5.04337C85.7572 5.04881 85.7485 5.05462 85.7388 5.0597C85.7225 5.06878 85.7041 5.07531 85.6871 5.08294C85.6683 5.09128 85.6506 5.10072 85.6322 5.10798C85.6286 5.10944 85.6246 5.11016 85.621 5.11161C85.5137 5.15046 85.3995 5.17296 85.2789 5.17296C85.1589 5.17296 85.0451 5.15046 84.9385 5.11198C84.9338 5.11052 84.9302 5.1098 84.9259 5.10798C84.9067 5.10036 84.8887 5.09128 84.871 5.08294C84.8532 5.07531 84.8355 5.06878 84.8193 5.0597C84.8095 5.05462 84.8009 5.04881 84.7911 5.04337C84.7673 5.02921 84.7431 5.01614 84.7199 4.99981C84.7098 4.99291 84.7008 4.98565 84.691 4.97803C84.6697 4.96169 84.6491 4.94608 84.6282 4.92902C84.6126 4.91559 84.5993 4.90071 84.5852 4.88691C84.5718 4.87457 84.5577 4.86186 84.5454 4.84843C84.5266 4.8281 84.5097 4.80669 84.4927 4.78418L84.9909 5.53307C84.9909 5.53307 84.9909 5.53379 84.9916 5.53379Z" fill="#5D5BF3"/>
<path d="M85.3388 5.83525C85.3294 5.8298 85.3204 5.82399 85.3106 5.81891C85.2871 5.80475 85.2626 5.79132 85.2398 5.77535C85.2293 5.76809 85.2203 5.76083 85.2109 5.75321C85.1892 5.73687 85.1686 5.72126 85.148 5.7042C85.1325 5.69077 85.1191 5.67589 85.1051 5.66209C85.0917 5.64975 85.0776 5.63741 85.0649 5.62398C85.0436 5.60074 85.0234 5.57461 85.0035 5.5492C84.9999 5.54339 84.9959 5.53976 84.9923 5.53468V5.53395C84.9916 5.53395 84.9916 5.53359 84.9916 5.53359L84.4934 4.7847C84.4905 4.78107 84.4869 4.77744 84.4847 4.77454C84.4807 4.76873 84.4771 4.7651 84.4735 4.76002V4.75965C84.4728 4.75965 84.4728 4.75929 84.4728 4.75929L82.0702 1.14881C81.457 0.446388 80.5592 0.000976562 79.5566 0.000976562H77.4712H75.866H75.8652C76.8686 0.000976562 77.7664 0.447114 78.3795 1.15026C78.3831 1.15498 78.3878 1.15861 78.3914 1.16333L79.6784 3.09708L79.6961 3.12285L81.487 5.81419C81.9513 6.41643 82.6717 6.77653 83.4297 6.77653C84.1762 6.77653 84.8861 6.42623 85.3511 5.8396C85.346 5.83815 85.3424 5.83706 85.3388 5.83525Z" fill="#5D5BF3"/>
<path d="M78.6783 3.12298L78.6606 3.09721L78.6523 3.0845H78.5396C78.5901 3.08377 78.6367 3.09721 78.6783 3.12298Z" fill="#5D5BF3"/>
<path d="M77.3732 1.16284C76.7605 0.452071 75.8572 0.000488281 74.8471 0.000488281H73.9225H72.9065H72.043C70.6925 0.000488281 69.5967 1.10077 69.5967 2.45842C69.5967 3.00329 69.7752 3.5057 70.074 3.91299L70.725 4.89094L71.9982 6.80472C71.7771 6.43518 71.6467 6.00465 71.6467 5.54181C71.6467 4.4615 72.3411 3.54672 73.305 3.21711C73.5529 3.13253 73.8174 3.08424 74.0934 3.08424H78.1753H78.5388H78.6515L77.3732 1.16284Z" fill="#5D5BF3"/>
<path d="M82.8409 18.941C82.7921 18.0331 82.5197 17.143 82.0511 16.3672C82.0272 16.3287 82.003 16.2906 81.9785 16.2525L73.7907 3.9458C72.829 4.27723 72.1367 5.19056 72.1367 6.26833C72.1367 6.73116 72.2664 7.16242 72.4886 7.53124L81.9792 21.7989C82.0037 21.837 82.028 21.8748 82.0518 21.9136C82.5204 22.6894 82.7928 23.5791 82.8416 24.4874C82.8449 24.5425 82.8463 24.5974 82.8463 24.6525V23.2226V19.1054C82.8452 19.0509 82.8438 18.9954 82.8409 18.941Z" fill="#5D5BF3"/>
<path d="M12.0457 6.18626V5.43738V3.36097C12.0457 1.50454 10.5478 -0.000488281 8.699 -0.000488281H5.63086C7.47745 -0.000488281 8.97611 1.50382 8.97683 3.35952V3.36097V4.56616C9.01296 6.02001 10.1991 7.19289 11.6548 7.19289C11.9554 7.19289 12.2477 7.13989 12.5244 7.04514C12.2379 6.86654 12.0457 6.55 12.0457 6.18626Z" fill="#5D5BF3"/>
<path d="M16.1062 8.90185C16.1091 8.89895 16.1113 8.89677 16.1138 8.89423L20.178 4.04443C20.1773 4.0448 20.1766 4.0448 20.1762 4.04552L16.1062 8.90185Z" fill="#5D5BF3"/>
<path d="M20.3768 3.95446L20.2529 3.9541L20.1777 4.04413C20.2327 3.98496 20.2999 3.95446 20.3768 3.95446Z" fill="#5D5BF3"/>
<path d="M17.792 3.9541C16.8154 3.9541 15.9407 4.37918 15.3294 5.05075C15.3973 4.96835 15.3937 4.97052 15.2716 5.11101C15.2716 5.11101 14.5598 5.959 13.9012 6.74201C13.696 6.98341 13.5489 7.15547 13.5381 7.166C13.033 7.66659 12.3642 7.94284 11.655 7.94284C10.1986 7.94284 9.01246 6.76959 8.97705 5.31502V6.18697C8.97705 7.05129 9.24586 7.85281 9.70254 8.51458C10.4399 9.58255 11.6673 10.2857 13.0565 10.2857C14.1353 10.2857 15.1531 9.86606 15.9215 9.10374C15.9866 9.03949 16.0484 8.97197 16.1069 8.90191L20.1758 4.04522C20.1762 4.04449 20.1769 4.04449 20.1776 4.04413L20.2528 3.9541H17.792Z" fill="#5D5BF3"/>
<path d="M25.1005 0.000488281H24.7287H23.8793H21.1071C20.0969 0.000488281 19.1936 0.452071 18.5802 1.16284L16.8907 3.17899L16.0012 4.24006C16.6147 3.53292 17.5151 3.08352 18.5224 3.08352H27.4652C27.5179 2.88423 27.5472 2.67477 27.5472 2.45806C27.5468 1.10113 26.4517 0.000488281 25.1005 0.000488281Z" fill="#5D5BF3"/>
<path d="M16.1134 28.0868C16.0523 28.0146 15.988 27.9445 15.9212 27.8778C15.9028 27.8596 15.8832 27.844 15.8641 27.8258C15.1025 27.0977 14.11 26.6958 13.0565 26.6958C11.2492 26.6958 9.71482 27.8836 9.1801 29.5229C9.05003 29.9237 8.97705 30.3509 8.97705 30.7953V33.528V33.6028C10.3695 33.52 11.5329 32.5849 11.9541 31.3067C12.0636 30.9742 12.125 30.6196 12.125 30.2507V30.2515C12.1279 30.0696 12.1482 29.8925 12.185 29.7208C12.5405 28.656 13.542 27.8868 14.7199 27.8868C15.4226 27.8868 16.0859 28.1591 16.5885 28.6528L16.1134 28.0868Z" fill="#5D5BF3"/>
<path d="M22.0012 33.8062L22.0782 33.8976H22.2025C22.1244 33.8976 22.0569 33.8664 22.0012 33.8062Z" fill="#5D5BF3"/>
<path d="M31.9261 33.0682L30.8867 31.8282L29.3642 30.0117C29.6518 30.4143 29.8237 30.9058 29.8237 31.4402C29.8237 32.425 29.2453 33.2723 28.4132 33.6643C28.1 33.8113 27.7521 33.897 27.3835 33.8985H22.2022H22.0779L23.686 35.8191C24.2995 36.5295 25.2031 36.9818 26.2129 36.9818H29.956C31.3072 36.9818 32.4023 35.8808 32.4023 34.5232C32.4034 33.9779 32.2249 33.4752 31.9261 33.0682Z" fill="#5D5BF3"/>
<path d="M20.9508 19.9665C20.9577 19.9749 20.9628 19.9843 20.9693 19.9927L28.8217 29.3641C28.8177 29.3586 28.8148 29.3528 28.8112 29.3467L20.6123 19.5625C20.6166 19.5676 20.6199 19.5716 20.6235 19.5763L20.9508 19.9665Z" fill="#5D5BF3"/>
<path d="M28.8217 29.364L20.9692 19.9926C20.9627 19.9842 20.9577 19.9748 20.9508 19.9664L20.6238 19.5762C20.6199 19.5715 20.6162 19.5675 20.6126 19.5624C20.5902 19.5359 20.5682 19.5094 20.5465 19.4807C19.7997 18.513 19.3878 17.3078 19.3878 16.0859C19.3878 14.8985 19.7802 13.7267 20.4891 12.7734L18.8889 14.6829L18.6233 15.0005C18.5973 15.0317 18.5706 15.0637 18.5464 15.0963C17.7992 16.0637 17.3877 17.2689 17.3877 18.4905C17.3877 19.708 17.797 20.9088 18.5395 21.8748L27.8606 32.9992C28.6938 32.6071 29.2711 31.7599 29.2711 30.775C29.2708 30.2479 29.102 29.7637 28.8217 29.364Z" fill="#5D5BF3"/>
<path d="M21.5063 16.3477L31.9265 3.9125C31.9294 3.9085 31.9312 3.90487 31.9341 3.90088L21.515 16.3343C21.5114 16.3386 21.5092 16.3437 21.5063 16.3477Z" fill="#5D5BF3"/>
<path d="M27.9316 3.89453L21.033 12.1221C21.0283 12.1287 21.0254 12.1345 21.0208 12.141L27.919 3.91341C27.9233 3.90724 27.9273 3.9007 27.9316 3.89453Z" fill="#5D5BF3"/>
<path d="M29.9567 0.000488281H28.1495H25.9495C27.3008 0.000488281 28.3962 1.10077 28.3962 2.45842C28.3962 2.67513 28.3666 2.88495 28.3135 3.08424C28.2369 3.37501 28.109 3.64437 27.9392 3.8825C27.9363 3.88649 27.9334 3.89012 27.9312 3.89412C27.9269 3.90101 27.9233 3.90682 27.9186 3.91299L21.0207 12.1406C20.3205 13.0898 19.9321 14.2537 19.9321 15.4342C19.9321 16.3007 20.1431 17.1566 20.5294 17.9273C20.688 18.2435 20.8729 18.547 21.0908 18.8283C21.1154 18.861 21.1418 18.8922 21.1678 18.9238L21.4947 19.314C21.1862 18.9027 21.0005 18.3934 21.0005 17.8387C21.0005 17.2764 21.1902 16.7617 21.5056 16.3482C21.5088 16.3435 21.511 16.3391 21.5142 16.3348L31.9326 3.90138C32.226 3.49626 32.4027 2.99894 32.4027 2.45842C32.4034 1.10113 31.3079 0.000488281 29.9567 0.000488281Z" fill="#5D5BF3"/>
<path d="M4.81176 0.000488281H3.51759H3.34597C1.4983 0.000488281 0 1.50552 0 3.36195V4.24696V6.44643C0 4.59 1.49794 3.08461 3.34597 3.08461H6.32053H7.14032H7.88025H8.14292C8.00165 1.35778 6.56549 0.000488281 4.81176 0.000488281Z" fill="#5D5BF3"/>
<path d="M3.06874 33.6194V4.23204V3.96777C1.35077 4.10971 0.000244141 5.55267 0.000244141 7.3158V7.86757V8.7377V33.619C0.000244141 35.4755 1.49818 36.9812 3.34622 36.9812H4.17431H6.41508C4.56704 36.9812 3.06874 35.4762 3.06874 33.6194Z" fill="#5D5BF3"/>
<path d="M12.0456 33.6192V32.7349C11.4321 33.4456 10.5289 33.8972 9.5187 33.8972H8.69892H4.16464H3.90161C4.04288 35.6233 5.4794 36.9806 7.23349 36.9806H8.69892C10.5477 36.981 12.0456 35.4759 12.0456 33.6192Z" fill="#5D5BF3"/>
<path d="M63.8558 33.8978H38.9638H38.7004C38.8424 35.6239 40.2779 36.9812 42.0327 36.9812H42.6281H43.4479H63.8554C65.7034 36.9812 67.2021 35.4762 67.2021 33.619V32.7351V30.5356C67.2021 32.3935 65.7042 33.8978 63.8558 33.8978Z" fill="#5D5BF3"/>
<path d="M63.8557 25.8872H63.028H60.7876C62.6327 25.8872 64.1289 27.389 64.1336 29.2421C64.1336 29.2447 64.1336 29.2472 64.1336 29.2498V32.7495V33.0142C65.8519 32.8722 67.2024 31.43 67.2024 29.6665V29.2494C67.2021 27.3922 65.7041 25.8872 63.8557 25.8872Z" fill="#5D5BF3"/>
<path d="M63.8557 0.000488281H63.0287H60.7876C62.6327 0.000488281 64.1289 1.50153 64.1336 3.35469C64.1336 3.35723 64.1336 3.35941 64.1336 3.36195V3.36267V6.86244V7.12707C65.8519 6.9855 67.2024 5.54254 67.2024 3.77941V3.36303C67.2021 1.50588 65.7041 0.000488281 63.8557 0.000488281Z" fill="#5D5BF3"/>
<path d="M37.868 33.6194V30.6776V29.8078V4.23387V3.96924C36.1501 4.11117 34.7988 5.55413 34.7988 7.31727V7.86904V8.73917V33.6205C34.7988 35.4769 36.2971 36.9827 38.1448 36.9827H38.9733H41.2137C39.3656 36.9812 37.868 35.4762 37.868 33.6194Z" fill="#5D5BF3"/>
<path d="M59.9686 0.000488281H38.1448C36.2979 0.000488281 34.7988 1.50552 34.7988 3.36267V4.24696V6.44643C34.7988 4.59 36.2971 3.08461 38.1448 3.08461H41.1197H41.9391H63.0375H63.3008C63.1596 1.35814 61.7227 0.000488281 59.9686 0.000488281Z" fill="#5D5BF3"/>
<path d="M59.4111 16.2983V16.306H59.4119C59.4119 16.3027 59.4111 16.3009 59.4111 16.2983Z" fill="#5D5BF3"/>
<path d="M59.1343 12.9443H58.3073H56.0654C57.9102 12.9443 59.4074 14.445 59.411 16.2982C59.411 16.3011 59.4118 16.3033 59.4118 16.3058H59.411V19.8059V20.0706C61.1294 19.9283 62.4799 18.4857 62.4799 16.7225V16.3062C62.4799 14.4486 60.9823 12.9443 59.1343 12.9443Z" fill="#5D5BF3"/>
<path d="M59.9687 25.8871L46.9696 25.8863H47.789C46.1436 25.8616 44.7378 24.8503 44.1182 23.4204C44.0362 23.6095 43.9668 23.8059 43.9144 24.0078C43.8866 24.1148 43.8689 24.2259 43.8487 24.3356C43.8118 24.5443 43.7851 24.7563 43.7808 24.9748C43.8324 27.1645 45.6021 28.9363 47.789 28.9697L63.3009 28.9704C63.1589 27.2443 61.7228 25.8871 59.9687 25.8871Z" fill="#5D5BF3"/>
<path d="M59.1422 20.9536H59.134L59.1348 20.954C59.1368 20.954 59.1391 20.9536 59.1422 20.9536Z" fill="#5D5BF3"/>
<path d="M59.1416 20.9534C59.1387 20.9534 59.1365 20.9537 59.1343 20.9537L59.1336 20.9534H51.7877C49.8887 20.9534 48.2958 22.2678 47.8474 24.0371C47.8481 24.0371 47.8481 24.0371 47.8489 24.0371H48.7189H59.1336H59.1343C60.982 24.0371 62.48 22.5321 62.48 20.675V19.848V17.5923C62.48 19.4469 60.986 20.9494 59.1416 20.9534Z" fill="#5D5BF3"/>
<path d="M48.4176 20.9531H47.8489C46.3509 20.9531 45.0459 21.7724 44.3396 22.9863C44.8837 23.92 45.7833 24.6206 46.8535 24.8929C46.8604 24.7081 46.882 24.5284 46.9124 24.3509C47.2426 22.4255 48.9082 20.9542 50.9177 20.9542L48.4176 20.9531Z" fill="#5D5BF3"/>
<path d="M55.246 12.9441L46.9691 12.9437H47.7885C46.1432 12.9183 44.7373 11.9077 44.1177 10.4771C44.0357 10.6662 43.9663 10.8622 43.914 11.0644C43.8861 11.1718 43.8684 11.2826 43.8482 11.3922C43.8113 11.6009 43.7846 11.8129 43.7803 12.0315C43.8319 14.2211 45.6016 15.993 47.7885 16.0271L58.5779 16.0278C58.437 14.3017 57.0005 12.9441 55.246 12.9441Z" fill="#5D5BF3"/>
<path d="M48.7183 11.0942L63.8559 11.0953H63.8573L48.719 11.0942H48.7183Z" fill="#5D5BF3"/>
<path d="M63.8573 8.01183L51.7878 8.01074H51.7864L63.8559 8.01183H63.8573Z" fill="#5D5BF3"/>
<path d="M63.8573 8.0116C63.8573 8.0116 63.8566 8.0116 63.8559 8.0116L51.7868 8.01051C49.8881 8.01124 48.2963 9.32496 47.8479 11.0939C47.8486 11.0939 47.8486 11.0939 47.8493 11.0939H48.7186H48.7194L63.8573 11.095C65.7047 11.0943 67.2026 9.58996 67.2026 7.73244V6.90515V4.64941C67.2022 6.5062 65.705 8.01087 63.8573 8.0116Z" fill="#5D5BF3"/>
<path d="M48.4172 8.00977H47.8489C46.3509 8.00977 45.0459 8.82944 44.3396 10.0426C44.8837 10.977 45.7833 11.6769 46.8535 11.9495C46.8604 11.7651 46.882 11.5847 46.9124 11.4075C47.2426 9.48213 48.9082 8.01122 50.9177 8.01122L48.4172 8.01086V8.00977Z" fill="#5D5BF3"/>
<path d="M22.5911 35.8371L16.806 28.9316C16.3594 28.6154 15.829 28.4419 15.2726 28.4419C14.2769 28.4419 13.413 28.9944 12.9524 29.8083C12.9871 29.8039 13.0203 29.7977 13.0561 29.7977C13.3328 29.7977 13.5832 29.9106 13.7657 30.0914L18.58 35.8371C19.1934 36.5475 20.0967 36.9998 21.1069 36.9998H25.118C24.1082 36.9998 23.2046 36.5475 22.5911 35.8371Z" fill="#5D5BF3"/>
</g>
<defs>
<clipPath id="clip0_630_1345">
<rect width="102" height="37" fill="white"/>
</clipPath>
</defs>
</svg>
